<?xml version="1.0" encoding="utf-8"?>
<!-- Generator: Adobe Illustrator 22.0.1, SVG Export Plug-In . SVG Version: 6.00 Build 0)  -->
<svg version="1.1" id="Layer_1" xmlns="http://www.w3.org/2000/svg" xmlns:xlink="http://www.w3.org/1999/xlink" x="0px" y="0px"
	 viewBox="0 0 365.7 127.9" style="enable-background:new 0 0 365.7 127.9;" xml:space="preserve">
<style type="text/css">
	.st0{fill:#4520AB;}
	.st1{fill:#00EDFF;}
</style>
<g>
	<g>
		<g>
			<path class="st0" d="M177.4,28v5.2h-19.9V0.8h19.4V6H163v8.1h11.9v5.2H163V28H177.4z"/>
		</g>
		<g>
			<path class="st0" d="M206.7,31.6c-1,0.6-2.2,1.1-3.5,1.5s-2.8,0.5-4.3,0.5c-2.9,0-5.1-0.9-6.5-2.8c-1.4-1.9-2.2-4.3-2.2-7.5V6
				h-8.9V0.8h14.4v21.9c0,1.8,0.3,3.2,1,4.2c0.7,1,1.7,1.5,2.9,1.5c2,0,4.1-0.6,6.1-1.9L206.7,31.6z"/>
		</g>
		<g>
			<path class="st0" d="M228.4,10.9c1.5,0.9,2.7,2.2,3.7,4s1.5,4,1.5,6.7s-0.5,4.9-1.5,6.7c-1,1.8-2.2,3.1-3.7,4
				c-1.5,0.9-3,1.3-4.5,1.3c-3.5,0-6-1.7-7.5-5c-0.1,2.5-0.2,4-0.2,4.6h-5.5c1.3-4.3,1.9-8.7,1.9-13.4v-19h5.5l-0.4,11.7
				c1.5-1.9,3.6-2.9,6.3-2.9C225.5,9.6,226.9,10.1,228.4,10.9z M226.8,26.8c0.9-1.2,1.3-2.9,1.3-5.1s-0.5-3.9-1.5-5.1
				s-2.2-1.8-3.7-1.8s-2.7,0.6-3.6,1.9c-0.8,1.3-1.3,2.9-1.3,4.9s0.4,3.6,1.3,4.9c0.9,1.3,2.1,1.9,3.8,1.9
				C224.7,28.5,225.9,27.9,226.8,26.8z"/>
		</g>
		<g>
			<path class="st0" d="M258.4,20.6h-5.5c0-3.9-0.9-5.8-2.8-5.8c-1.7,0-3,1.1-3.9,3.3s-1.4,5.1-1.4,8.7v6.4h-5.5V23
				c0-2-0.2-4.2-0.6-6.6c-0.4-2.5-0.8-4.5-1.3-6.3h5c0.2,1.2,0.4,3.4,0.6,6.4c0.6-2.2,1.6-3.8,3-5c1.3-1.2,3-1.8,4.9-1.8
				c3.5,0,5.8,1.7,6.8,5.1C258.1,16.1,258.4,18.1,258.4,20.6z"/>
		</g>
		<g>
			<path class="st0" d="M278.8,33.2l-0.2-6.1c-0.7,2.1-1.7,3.7-2.9,4.8c-1.2,1.1-2.7,1.7-4.4,1.7c-3.4,0-5.7-1.5-6.8-4.5
				c-0.7-2.1-1.1-4.7-1.1-7.8V10.1h5.5v10.4c0,2.9,0.2,4.9,0.6,6c0.2,0.7,0.6,1.2,0.9,1.5c0.4,0.3,0.9,0.5,1.6,0.5
				c1.7,0,3-1,3.8-3.1c0.8-2,1.2-4.7,1.2-8V10h5.5v9.8c0,4.7,0.6,9.1,1.9,13.4C284.4,33.2,278.8,33.2,278.8,33.2z"/>
		</g>
		<g>
			<path class="st0" d="M307.5,22.6c0.8,1.1,1.2,2.4,1.2,4c0,2.1-0.9,3.8-2.6,5.1c-1.7,1.3-3.9,1.9-6.5,1.9c-2.2,0-4.3-0.4-6.4-1.1
				c-2.1-0.8-3.7-1.8-4.9-3.3l3.5-3.6c1.9,1.9,4.5,2.8,7.8,2.8c1.3,0,2.3-0.2,2.8-0.6c0.6-0.4,0.8-0.8,0.8-1.4
				c0-0.4-0.1-0.7-0.4-0.9c-0.3-0.3-0.8-0.5-1.4-0.7l-7-2.2c-3.7-1.1-5.5-3.2-5.5-6.2c0-2.3,0.9-4.1,2.7-5.2
				c1.8-1.1,4.1-1.7,6.9-1.7c1.9,0,3.7,0.3,5.3,0.8c1.6,0.6,3,1.4,4,2.4l-3.4,3.8c-0.8-0.6-1.7-1.1-2.8-1.4
				c-1.1-0.3-2.1-0.5-3.1-0.5c-2.7,0-4.1,0.5-4.1,1.5c0,0.3,0.2,0.6,0.5,0.9c0.3,0.2,0.8,0.5,1.5,0.7l7,2.2
				C305.3,20.7,306.6,21.6,307.5,22.6z"/>
		</g>
	</g>
	<g>
		<g>
			<path class="st0" d="M178,70.8c-1.5,1.9-2.9,3.4-4.5,4.2c-1.5,0.9-3.4,1.3-5.5,1.3c-1.9,0-3.7-0.4-5.5-1.3
				c-1.7-0.9-3.2-2.2-4.3-4s-1.7-4-1.7-6.7c0-2.7,0.5-4.9,1.6-6.7c1-1.8,2.4-3.1,4-4s3.4-1.3,5.3-1.3c2.1,0,3.8,0.4,5.3,1.1
				c1.4,0.8,2.9,2,4.4,3.7l-4.1,3.2c-0.8-1-1.6-1.7-2.4-2.2c-0.8-0.5-1.8-0.7-2.9-0.7c-1.7,0-3.1,0.6-4.1,1.7
				c-1,1.2-1.5,2.9-1.5,5.1c0,2.2,0.6,3.9,1.8,5.1s2.7,1.8,4.5,1.8c1.1,0,2-0.3,2.9-0.8c0.8-0.5,1.7-1.4,2.6-2.6L178,70.8z"/>
		</g>
		<g>
			<path class="st0" d="M198,53.6c1.6,0.9,3,2.2,4,4s1.5,4.1,1.5,6.7c0,2.7-0.5,4.9-1.5,6.7c-1,1.8-2.4,3.2-4,4
				c-1.7,0.9-3.4,1.3-5.3,1.3c-1.9,0-3.6-0.4-5.3-1.3s-3-2.2-4-4s-1.5-4.1-1.5-6.7c0-2.7,0.5-4.9,1.5-6.7s2.4-3.2,4-4
				c1.6-0.9,3.4-1.3,5.3-1.3C194.6,52.3,196.3,52.7,198,53.6z M196.6,69.5c0.9-1.2,1.4-2.9,1.4-5.1c0-2.2-0.5-3.9-1.5-5.1
				c-1-1.2-2.3-1.8-3.8-1.8c-1.7,0-3,0.6-3.9,1.7c-0.9,1.2-1.4,2.9-1.4,5.1s0.5,3.9,1.5,5.1s2.3,1.8,3.8,1.8
				C194.4,71.2,195.7,70.6,196.6,69.5z"/>
		</g>
		<g>
			<path class="st0" d="M225.6,75.9c0-0.6-0.1-2.1-0.2-4.6c-1.5,3.4-3.9,5-7.5,5c-1.7,0-3.3-0.4-4.8-1.2c-1.5-0.8-2.7-2.1-3.6-3.9
				c-0.9-1.8-1.4-4.1-1.4-6.9c0-2.4,0.5-4.6,1.5-6.4c1-1.8,2.2-3.2,3.7-4.2s3-1.5,4.5-1.5c2.7,0,4.8,1,6.4,3l-0.5-11.8h5.5v19
				c0,4.7,0.6,9.1,1.9,13.4L225.6,75.9L225.6,75.9z M222.4,69.3c0.9-1.3,1.3-2.9,1.3-4.9s-0.4-3.6-1.3-4.9c-0.8-1.3-2-1.9-3.6-1.9
				c-1.5,0-2.8,0.6-3.7,1.8c-1,1.2-1.5,2.9-1.5,5.1c0,2.3,0.4,4,1.3,5.1c0.9,1.2,2.1,1.7,3.6,1.7C220.3,71.2,221.6,70.6,222.4,69.3z
				"/>
		</g>
		<g>
			<path class="st0" d="M256.6,70.7v5.2h-20.7v-5.2h8.3V58h-7.4v-5.2h12.9v18h6.9V70.7z M244.1,42.5c0.7-0.8,1.6-1.1,2.7-1.1
				c1,0,1.9,0.4,2.7,1.2c0.7,0.8,1.1,1.8,1.1,3s-0.3,2.2-1,2.9c-0.7,0.8-1.6,1.1-2.7,1.1c-1,0-1.9-0.4-2.7-1.2
				c-0.7-0.8-1.1-1.8-1.1-3C243.1,44.3,243.4,43.3,244.1,42.5z"/>
		</g>
		<g>
			<path class="st0" d="M281,64.6v11.3h-5.5V65.5c0-2.9-0.2-4.9-0.6-6c-0.2-0.7-0.6-1.2-0.9-1.5c-0.4-0.3-0.9-0.5-1.6-0.5
				c-1.7,0-3,0.9-3.8,2.8c-0.8,1.9-1.2,4.5-1.2,7.8v7.8H262V65.7c0-4.3-0.6-8.7-1.9-12.9h5.5c0,0.9,0.1,2.9,0.2,5.9
				c0.7-2,1.7-3.6,2.9-4.7c1.2-1.1,2.7-1.7,4.5-1.7c3.4,0,5.7,1.5,6.8,4.5C280.6,58.9,281,61.5,281,64.6z"/>
		</g>
		<g>
			<path class="st0" d="M308.4,52.8c-1.3,4.3-1.9,8.6-1.9,12.9v7.7c0,4.2-0.9,7.3-2.7,9.3c-1.8,2-4.3,2.9-7.5,2.9
				c-1.6,0-3.2-0.2-4.9-0.7c-1.7-0.5-3.1-1.2-4.1-2.2l1.1-5c1,0.8,2.1,1.4,3.4,1.8s2.7,0.7,4.1,0.7c1.8,0,3-0.5,3.9-1.5
				c0.8-1,1.2-2.6,1.2-4.8v-1.2c-1.5,1.9-3.4,2.8-5.8,2.8c-1.5,0-3.1-0.4-4.6-1.2c-1.5-0.8-2.7-2.1-3.7-3.8c-1-1.7-1.5-3.9-1.5-6.5
				c0-2.5,0.5-4.6,1.5-6.4c1-1.7,2.2-3,3.7-3.9s2.9-1.3,4.3-1.3c1.9,0,3.5,0.5,4.8,1.6c1.3,1,2.3,2.5,2.9,4.5c0-0.7,0-1.7,0.1-2.9
				v-2.7h5.7V52.8z M299.7,68.5c0.9-1.2,1.3-2.7,1.3-4.6s-0.4-3.4-1.3-4.6c-0.8-1.2-2-1.8-3.6-1.8c-1.5,0-2.8,0.5-3.7,1.6
				c-1,1.1-1.5,2.7-1.5,4.8s0.4,3.7,1.3,4.8c0.9,1.1,2.1,1.6,3.6,1.6C297.6,70.3,298.9,69.7,299.7,68.5z"/>
		</g>
	</g>
	<g>
		<g>
			<path class="st0" d="M173.1,96.3c1.5,0.9,2.7,2.2,3.7,4s1.5,4,1.5,6.7s-0.5,4.9-1.5,6.7c-1,1.8-2.2,3.1-3.7,4s-3,1.3-4.5,1.3
				c-3.5,0-6-1.7-7.5-5c-0.1,2.5-0.2,4-0.2,4.6h-5.5c1.3-4.3,1.9-8.7,1.9-13.4v-19h5.5l-0.4,11.7c1.5-1.9,3.6-2.9,6.3-2.9
				C170.2,95,171.6,95.4,173.1,96.3z M171.5,112.1c0.9-1.2,1.3-2.9,1.3-5.1s-0.5-3.9-1.5-5.1s-2.2-1.8-3.7-1.8s-2.7,0.6-3.6,1.9
				c-0.8,1.3-1.3,2.9-1.3,4.9s0.4,3.6,1.3,4.9c0.9,1.3,2.1,1.9,3.8,1.9C169.4,113.9,170.6,113.3,171.5,112.1z"/>
		</g>
		<g>
			<path class="st0" d="M199,96.3c1.6,0.9,3,2.2,4,4s1.5,4.1,1.5,6.7c0,2.7-0.5,4.9-1.5,6.7c-1,1.8-2.4,3.2-4,4
				c-1.7,0.9-3.4,1.3-5.3,1.3c-1.9,0-3.6-0.4-5.3-1.3s-3-2.2-4-4s-1.5-4.1-1.5-6.7c0-2.7,0.5-4.9,1.5-6.7c1-1.8,2.4-3.2,4-4
				c1.6-0.9,3.4-1.3,5.3-1.3S197.4,95.4,199,96.3z M197.7,112.1c0.9-1.2,1.4-2.9,1.4-5.1s-0.5-3.9-1.5-5.1s-2.3-1.8-3.8-1.8
				c-1.7,0-3,0.6-3.9,1.7s-1.4,2.9-1.4,5.1s0.5,3.9,1.5,5.1s2.3,1.8,3.8,1.8C195.5,113.9,196.8,113.3,197.7,112.1z"/>
		</g>
		<g>
			<path class="st0" d="M225.3,96.3c1.6,0.9,3,2.2,4,4s1.5,4.1,1.5,6.7c0,2.7-0.5,4.9-1.5,6.7c-1,1.8-2.4,3.2-4,4
				c-1.7,0.9-3.4,1.3-5.3,1.3c-1.9,0-3.6-0.4-5.3-1.3s-3-2.2-4-4s-1.5-4.1-1.5-6.7c0-2.7,0.5-4.9,1.5-6.7c1-1.8,2.4-3.2,4-4
				c1.6-0.9,3.4-1.3,5.3-1.3C221.9,95,223.6,95.4,225.3,96.3z M224,112.1c0.9-1.2,1.4-2.9,1.4-5.1s-0.5-3.9-1.5-5.1
				s-2.3-1.8-3.8-1.8c-1.7,0-3,0.6-3.9,1.7s-1.4,2.9-1.4,5.1s0.5,3.9,1.5,5.1s2.3,1.8,3.8,1.8C221.7,113.9,223,113.3,224,112.1z"/>
		</g>
		<g>
			<path class="st0" d="M257.8,117c-1,0.7-2.3,1.2-3.8,1.5s-3,0.5-4.5,0.5c-3.1,0-5.4-0.9-7-2.7c-1.6-1.8-2.5-4.2-2.5-7.2v-8.6h-5.8
				v-5.2h5.8c0.9-1.5,1.5-3.7,1.7-6.6h3.8v6.6h11.6v5.2h-11.6v8.1c0,3.4,1.5,5.1,4.6,5.1c1.1,0,2.2-0.2,3.4-0.5s2.3-0.8,3.4-1.5
				L257.8,117z"/>
		</g>
		<g>
			<path class="st0" d="M283.1,113.5c-1.5,1.9-2.9,3.4-4.5,4.2c-1.5,0.9-3.4,1.3-5.5,1.3c-1.9,0-3.7-0.4-5.5-1.3
				c-1.7-0.9-3.2-2.2-4.3-4c-1.1-1.8-1.7-4-1.7-6.7s0.5-4.9,1.6-6.7c1-1.8,2.4-3.1,4-4s3.4-1.3,5.3-1.3c2.1,0,3.8,0.4,5.3,1.1
				c1.4,0.8,2.9,2,4.4,3.7l-4.1,3.2c-0.8-1-1.6-1.7-2.4-2.2s-1.8-0.7-2.9-0.7c-1.7,0-3.1,0.6-4.1,1.7c-1,1.2-1.5,2.9-1.5,5.1
				s0.6,3.9,1.8,5.1c1.2,1.2,2.7,1.8,4.5,1.8c1.1,0,2-0.3,2.9-0.8c0.8-0.5,1.7-1.4,2.6-2.6L283.1,113.5z"/>
		</g>
		<g>
			<path class="st0" d="M304.4,118.6c-0.1-1-0.2-3-0.2-5.7c-0.9,2-2,3.5-3.4,4.6s-3.2,1.6-5.5,1.6c-1.6,0-3-0.3-4.2-0.8
				c-1.2-0.6-2.1-1.3-2.7-2.2c-0.6-0.9-0.9-1.9-0.9-3c0-1.9,0.5-3.4,1.6-4.7c1-1.3,2.4-2.3,4.1-2.9s3.6-0.9,5.6-0.9
				c1.3,0,2.5,0.1,3.8,0.4c0-1.5-0.4-2.7-1.2-3.5c-0.8-0.8-1.9-1.2-3.2-1.2c-2.3,0-4.5,0.6-6.5,1.9l-3.3-4c1.8-1.2,3.4-2,5-2.5
				s3.3-0.7,5-0.7c3.1,0,5.5,0.9,7.2,2.6c1.7,1.8,2.5,4.8,2.5,9.2v1.6c0,2.6,0.6,6,1.9,10.2H304.4z M299.9,112.8
				c1.3-0.7,2.1-1.8,2.5-3.3l0,0c-0.9-0.2-2-0.3-3.3-0.3c-1.9,0-3.4,0.3-4.6,0.9c-1.1,0.6-1.7,1.3-1.7,2.2c0,0.5,0.3,0.9,0.9,1.2
				c0.6,0.3,1.3,0.4,2.2,0.4C297.3,113.9,298.7,113.5,299.9,112.8z"/>
		</g>
		<g>
			<path class="st0" d="M337.2,97c0.8,1.3,1.2,3.5,1.2,6.6v15H333v-14.1c0-1.6-0.1-2.8-0.3-3.4c-0.2-0.6-0.6-0.9-1.1-0.9
				c-0.8,0-1.4,0.8-1.7,2.3c-0.3,1.6-0.5,4-0.5,7.3v8.7h-5.5v-14.1c0-1.6-0.1-2.8-0.3-3.4c-0.2-0.6-0.6-0.9-1.1-0.9
				c-0.8,0-1.4,0.8-1.7,2.3c-0.3,1.6-0.5,4-0.5,7.3v8.7h-5.5v-13c0-1.6-0.2-3.2-0.5-4.8c-0.3-1.6-0.8-3.3-1.4-5.3h5.5
				c0.2,0.9,0.3,2.5,0.3,4.7c0.5-1.6,1.1-2.9,2-3.8s2-1.4,3.3-1.4c1.2,0,2.1,0.2,2.9,0.7s1.3,1.2,1.7,2.3c1-2,2.5-3,4.4-3
				C335,95,336.4,95.7,337.2,97z"/>
		</g>
		<g>
			<path class="st0" d="M360.5,96.3c1.5,0.9,2.7,2.2,3.7,4s1.5,4,1.5,6.7s-0.5,4.9-1.5,6.7c-1,1.8-2.2,3.1-3.7,4s-3,1.3-4.5,1.3
				c-2.4,0-4.3-0.8-5.8-2.4v11.2h-5.5v-19.5c0-4.3-0.6-8.7-1.9-12.9h5.5c0,1.2,0,2.8,0.1,4.7c0.7-1.7,1.7-2.9,3-3.8s2.8-1.3,4.7-1.3
				C357.6,95,359.1,95.4,360.5,96.3z M358.9,112.1c0.9-1.2,1.3-2.9,1.3-5.1s-0.5-3.9-1.5-5.1s-2.2-1.8-3.7-1.8s-2.7,0.6-3.6,1.9
				c-0.8,1.3-1.3,2.9-1.3,4.9s0.4,3.6,1.3,4.9s2.1,1.9,3.8,1.9C356.8,113.9,358,113.3,358.9,112.1z"/>
		</g>
	</g>
</g>
<g>
	<rect class="st0" width="119.8" height="119.8"/>
	<g>
		<path class="st1" d="M28.9,21.9h-4.7v3.4h4.5v1.2h-4.5v4.4h4.7v1.2H23V20.7h5.9C28.9,20.7,28.9,21.9,28.9,21.9z"/>
		<path class="st1" d="M46.9,20.7v10.2H50v1.2h-4.4V20.7H46.9z"/>
		<path class="st1" d="M69.3,20.7c0.6,0,1.8,0.1,2.6,0.7c0.4,0.3,1,1,1,2.4c0,0.6-0.1,1.6-1.1,2.2c1.6,0.4,2.2,1.8,2.2,2.9
			s-0.5,2-1.2,2.5c-0.9,0.7-2,0.8-2.7,0.8h-2.8V20.7H69.3z M68.5,25.7h1c0.7,0,2.2-0.1,2.2-1.9c0-1.9-1.8-1.9-2.2-1.9h-1V25.7z
			 M68.5,30.9H70c0.7,0,1.5-0.1,2-0.5c0.4-0.3,0.8-0.9,0.8-1.6c0-0.9-0.5-1.4-1-1.7c-0.4-0.2-1-0.3-1.9-0.3h-1.3L68.5,30.9
			L68.5,30.9z"/>
		<path class="st1" d="M91.2,20.7c0.8,0,1.9,0.1,2.8,0.6c0.7,0.4,1.3,1.3,1.3,2.5c0,1.7-1.1,3-2.9,3.2l3.6,5.1h-1.5l-3.5-5h-0.3v5
			h-1.3V20.7H91.2z M90.7,26h0.8c1.6,0,2.5-0.8,2.5-2.1c0-0.6-0.2-1.3-0.9-1.7c-0.5-0.3-1.1-0.3-1.6-0.3h-0.8V26z"/>
		<path class="st1" d="M22.8,50.1c0,1,0,2,0.9,2.8c0.5,0.4,1.2,0.7,1.9,0.7s1.4-0.3,1.9-0.7c0.9-0.8,0.9-1.8,0.9-2.8v-7h1.3v7.3
			c0,1-0.1,1.9-0.7,2.7c-0.7,0.9-1.9,1.5-3.3,1.5c-1.5,0-2.7-0.6-3.3-1.5c-0.6-0.9-0.7-1.8-0.7-2.7v-7.3H23v7H22.8z"/>
		<path class="st1" d="M50.1,45.4c-0.2-0.3-0.4-0.7-0.7-0.9c-0.2-0.2-0.6-0.4-1.3-0.4c-1.1,0-1.9,0.7-1.9,1.8c0,0.4,0.1,0.7,0.4,1
			c0.3,0.3,0.8,0.5,1.2,0.7l1.1,0.5c0.7,0.3,1.3,0.6,1.8,1.1c0.6,0.6,0.8,1.3,0.8,2.1c0,2.1-1.6,3.5-3.6,3.5c-0.8,0-1.7-0.2-2.5-0.9
			c-0.6-0.5-0.9-1.3-1.1-2l1.2-0.3c0.1,0.6,0.4,1.1,0.7,1.5c0.5,0.5,1.1,0.6,1.6,0.6c1.6,0,2.3-1.1,2.3-2.3c0-0.5-0.2-1-0.6-1.3
			c-0.3-0.3-0.8-0.5-1.4-0.8l-1-0.5c-0.4-0.2-1-0.4-1.5-0.9s-0.8-1-0.8-1.9c0-1.8,1.4-2.9,3.2-2.9c0.7,0,1.3,0.1,1.8,0.5
			c0.5,0.3,0.9,0.8,1.1,1.3L50.1,45.4z"/>
		<path class="st1" d="M73.7,41.7l1,0.5l-8.6,15.4l-1-0.5L73.7,41.7z"/>
		<path class="st1" d="M25.3,65.6c0.6,0,1.8,0.1,2.6,0.7c0.4,0.3,1,1,1,2.4c0,0.6-0.1,1.6-1.1,2.2c1.6,0.4,2.2,1.8,2.2,2.9
			s-0.5,2-1.2,2.5C28,77,26.9,77,26.1,77h-2.8V65.6H25.3z M24.5,70.6h1c0.7,0,2.2-0.1,2.2-1.9c0-1.9-1.8-1.9-2.2-1.9h-1V70.6z
			 M24.5,75.8H26c0.7,0,1.5-0.1,2-0.5c0.4-0.3,0.8-0.9,0.8-1.6c0-0.9-0.5-1.4-1-1.7c-0.4-0.2-1-0.3-1.9-0.3h-1.3v4.1H24.5z"/>
		<path class="st1" d="M45.3,75.5c-0.8-1.1-1.1-2.6-1.1-4.2s0.4-3.1,1.1-4.2c0.9-1.3,2-1.7,2.9-1.7s2.1,0.4,2.9,1.7
			c0.8,1.1,1.1,2.6,1.1,4.2s-0.4,3.1-1.1,4.2c-0.9,1.3-2,1.7-2.9,1.7S46.1,76.8,45.3,75.5z M46.2,67.9c-0.6,1-0.8,2.3-0.8,3.5
			s0.2,2.5,0.8,3.5s1.4,1.3,2,1.3s1.4-0.3,2-1.3s0.8-2.3,0.8-3.5s-0.2-2.5-0.8-3.5s-1.4-1.3-2-1.3C47.6,66.6,46.8,66.9,46.2,67.9z"
			/>
		<path class="st1" d="M67.3,75.5c-0.8-1.1-1.1-2.6-1.1-4.2s0.4-3.1,1.1-4.2c0.9-1.3,2-1.7,2.9-1.7s2.1,0.4,2.9,1.7
			c0.8,1.1,1.1,2.6,1.1,4.2s-0.4,3.1-1.1,4.2c-0.9,1.3-2,1.7-2.9,1.7S68.2,76.8,67.3,75.5z M68.3,67.9c-0.6,1-0.8,2.3-0.8,3.5
			s0.2,2.5,0.8,3.5c0.6,1,1.4,1.3,2,1.3s1.4-0.3,2-1.3s0.8-2.3,0.8-3.5s-0.2-2.5-0.8-3.5c-0.6-1-1.4-1.3-2-1.3
			C69.7,66.6,68.9,66.9,68.3,67.9z"/>
		<path class="st1" d="M93.2,66.8V77h-1.3V66.8h-2.8v-1.2h6.8v1.2H93.2z"/>
		<path class="st1" d="M30.3,90.6c-0.4-0.4-0.9-0.8-1.5-1.1c-0.6-0.3-1.3-0.4-2-0.4c-2.6,0-4.6,2.1-4.6,4.8c0,3.1,2.5,4.7,4.6,4.7
			c0.8,0,1.5-0.2,2.1-0.5c0.7-0.3,1.1-0.8,1.3-1v1.6c-1.3,0.9-2.6,1.1-3.4,1.1c-3.4,0-5.9-2.6-5.9-5.9c0-3.4,2.6-5.9,6-5.9
			c0.7,0,2,0.1,3.4,1.1V90.6z"/>
		<path class="st1" d="M50.6,96.3h-4.9l-1.4,3.2H43l5.3-12l5.1,12H52L50.6,96.3z M50.1,95.1l-1.9-4.6l-2,4.6H50.1z"/>
		<path class="st1" d="M64.4,99.5l1.9-12.1l4.4,9.6l4.5-9.7L77,99.4h-1.3l-1.1-7.9l-3.9,8.4l-3.8-8.4l-1.1,7.9L64.4,99.5L64.4,99.5z
			"/>
		<path class="st1" d="M92,88.1c1.1,0,2.1,0.1,2.9,0.8c0.8,0.7,1,1.7,1,2.4c0,1.6-1,3.2-3.6,3.2h-1.1v5h-1.3V88.1H92z M91.2,93.3h1
			c1.5,0,2.4-0.8,2.4-2.1c0-1.8-1.7-2-2.5-2h-0.9V93.3z"/>
	</g>
</g>
</svg>
