<?xml version="1.0" encoding="utf-8"?>
<!-- Generator: Adobe Illustrator 22.0.1, SVG Export Plug-In . SVG Version: 6.00 Build 0)  -->
<svg version="1.1" id="Layer_1" xmlns="http://www.w3.org/2000/svg" xmlns:xlink="http://www.w3.org/1999/xlink" x="0px" y="0px"
	 viewBox="0 0 266.1 266.1" style="enable-background:new 0 0 266.1 266.1;" xml:space="preserve">
<style type="text/css">
	.st0{fill:#29EDFF;}
</style>
<g>
	<g>
		<g>
			<path class="st0" d="M66.3,47.7H56v7.5h10v2.7H56v9.8h10.3v2.7H53.2V45h13.1V47.7z"/>
			<path class="st0" d="M107.7,45v22.7h7v2.7h-9.8V45H107.7z"/>
			<path class="st0" d="M156.9,45c1.4,0,4,0.1,5.8,1.6c0.8,0.6,2.3,2.2,2.3,5.2c0,1.3-0.3,3.5-2.5,5c3.5,0.9,4.8,4,4.8,6.4
				c0,2.4-1.2,4.4-2.6,5.5c-2,1.6-4.3,1.7-6.1,1.7h-6.3V45H156.9z M155.1,56.1h2.1c1.5,0,5-0.3,5-4.2c0-4.2-4.1-4.3-4.9-4.3h-2.2
				V56.1z M155.1,67.7h3.2c1.6,0,3.2-0.1,4.4-1.1c1-0.7,1.7-2,1.7-3.5c0-2-1.2-3.2-2.2-3.7c-1-0.5-2.3-0.8-4.3-0.8h-2.9V67.7z"/>
			<path class="st0" d="M205.8,45c1.7,0,4.3,0.1,6.2,1.4c1.5,1,2.8,2.9,2.8,5.6c0,3.9-2.5,6.7-6.4,7l8.1,11.3H213l-7.7-11.1h-0.7
				v11.1h-2.8V45H205.8z M204.6,56.7h1.8c3.5,0,5.6-1.7,5.6-4.6c0-1.4-0.4-2.8-2-3.7c-1.1-0.6-2.4-0.7-3.6-0.7h-1.7V56.7z"/>
			<path class="st0" d="M53.6,110.4c0,2.1,0,4.4,2,6.2c1,0.9,2.8,1.4,4.2,1.4c1.4,0,3.2-0.6,4.2-1.4c2-1.7,2-4,2-6.2V94.9h2.8v16.3
				c0,2.1-0.2,4.2-1.6,6.1c-1.5,2.1-4.2,3.4-7.4,3.4c-3.2,0-5.9-1.3-7.4-3.4c-1.4-1.9-1.6-4-1.6-6.1V94.9h2.8V110.4z"/>
			<path class="st0" d="M114.5,99.9c-0.3-0.7-0.9-1.4-1.5-1.9c-0.5-0.4-1.4-0.9-2.9-0.9c-2.5,0-4.3,1.6-4.3,3.9c0,1,0.3,1.6,1,2.2
				c0.8,0.8,1.7,1.2,2.7,1.6l2.4,1.1c1.5,0.6,2.8,1.3,3.9,2.4c1.3,1.3,1.8,2.8,1.8,4.6c0,4.7-3.5,7.8-8,7.8c-1.7,0-3.8-0.3-5.5-2.1
				c-1.3-1.2-2-3-2.4-4.5l2.7-0.8c0.2,1.3,0.8,2.5,1.5,3.2c1.1,1.1,2.4,1.4,3.6,1.4c3.5,0,5.1-2.5,5.1-5c0-1.1-0.3-2.1-1.3-3
				c-0.7-0.7-1.7-1.1-3-1.7l-2.3-1.1c-1-0.5-2.2-1-3.4-2.1c-1.1-1.1-1.7-2.2-1.7-4.1c0-3.9,3-6.5,7.1-6.5c1.6,0,2.8,0.3,4.1,1.1
				c1,0.7,1.9,1.7,2.5,2.8L114.5,99.9z"/>
			<path class="st0" d="M168.2,91.7l2.2,1.1l-19.1,34.2l-2.2-1.1L168.2,91.7z"/>
			<path class="st0" d="M56.8,144.8c1.4,0,4,0.1,5.8,1.6c0.8,0.6,2.3,2.2,2.3,5.2c0,1.3-0.3,3.5-2.5,5c3.5,0.9,4.8,4,4.8,6.4
				c0,2.4-1.2,4.4-2.6,5.5c-2,1.6-4.3,1.7-6.1,1.7h-6.3v-25.3H56.8z M55.1,155.9h2.1c1.5,0,5-0.3,5-4.2c0-4.2-4.1-4.3-4.9-4.3h-2.2
				V155.9z M55.1,167.5h3.2c1.6,0,3.2-0.1,4.4-1.1c1-0.7,1.7-2,1.7-3.5c0-2-1.2-3.2-2.2-3.7c-1-0.5-2.3-0.8-4.3-0.8h-2.9V167.5z"/>
			<path class="st0" d="M103.3,166.8c-1.7-2.4-2.5-5.7-2.5-9.3c0-3.6,0.9-6.9,2.5-9.3c1.9-2.8,4.5-3.8,6.5-3.8c2,0,4.6,1,6.5,3.8
				c1.7,2.4,2.5,5.7,2.5,9.3c0,3.6-0.9,6.9-2.5,9.3c-1.9,2.8-4.5,3.8-6.5,3.8C107.8,170.6,105.2,169.6,103.3,166.8z M105.4,149.8
				c-1.4,2.2-1.9,5.1-1.9,7.7c0,2.7,0.5,5.5,1.9,7.7c1.3,2.1,3.1,2.8,4.4,2.8c1.3,0,3-0.7,4.4-2.8c1.4-2.2,1.9-5.1,1.9-7.7
				c0-2.7-0.5-5.5-1.9-7.7c-1.3-2.1-3.1-2.8-4.4-2.8C108.5,146.9,106.8,147.6,105.4,149.8z"/>
			<path class="st0" d="M153.3,166.8c-1.7-2.4-2.5-5.7-2.5-9.3c0-3.6,0.9-6.9,2.5-9.3c1.9-2.8,4.5-3.8,6.5-3.8c2,0,4.6,1,6.5,3.8
				c1.7,2.4,2.5,5.7,2.5,9.3c0,3.6-0.9,6.9-2.5,9.3c-1.9,2.8-4.5,3.8-6.5,3.8C157.8,170.6,155.3,169.6,153.3,166.8z M155.4,149.8
				c-1.4,2.2-1.9,5.1-1.9,7.7c0,2.7,0.5,5.5,1.9,7.7c1.3,2.1,3.1,2.8,4.4,2.8c1.3,0,3-0.7,4.4-2.8c1.4-2.2,1.9-5.1,1.9-7.7
				c0-2.7-0.5-5.5-1.9-7.7c-1.3-2.1-3.1-2.8-4.4-2.8C158.5,146.9,156.8,147.6,155.4,149.8z"/>
			<path class="st0" d="M210.5,147.4v22.7h-2.8v-22.7h-6.2v-2.7h15.1v2.7H210.5z"/>
			<path class="st0" d="M70.1,200.2c-0.8-0.8-2-1.7-3.3-2.4c-1.3-0.6-2.9-1-4.4-1c-5.9,0-10.2,4.7-10.2,10.6
				c0,6.9,5.6,10.3,10.2,10.3c1.7,0,3.4-0.5,4.7-1.2c1.4-0.7,2.5-1.7,2.9-2.1v3.5c-2.8,2-5.7,2.5-7.6,2.5c-7.5,0-13.1-5.7-13.1-13
				c0-7.6,5.7-13.2,13.3-13.2c1.5,0,4.4,0.2,7.5,2.5V200.2z"/>
			<path class="st0" d="M115.2,212.9h-10.8l-3,7.1h-3.1l11.7-26.6l11.4,26.6h-3.1L115.2,212.9z M114.1,210.2l-4.3-10.1l-4.3,10.1
				H114.1z"/>
			<path class="st0" d="M145.9,220l4.2-26.8l9.7,21.4l9.9-21.4l4,26.8h-2.9l-2.4-17.6l-8.6,18.7l-8.5-18.7l-2.5,17.6H145.9z"/>
			<path class="st0" d="M207.1,194.7c2.5,0,4.7,0.3,6.4,1.8c1.9,1.6,2.3,3.8,2.3,5.4c0,3.6-2.2,7.1-8,7.1h-2.5v11h-2.8v-25.3H207.1z
				 M205.3,206.3h2.3c3.3,0,5.4-1.7,5.4-4.6c0-4-3.8-4.4-5.6-4.4h-2.1V206.3z"/>
		</g>
	</g>
</g>
</svg>
